<svg width="4936" height="3103" xmlns="http://www.w3.org/2000/svg" xmlns:xlink="http://www.w3.org/1999/xlink" overflow="hidden"><defs><clipPath id="clip0"><rect x="435" y="371" width="4936" height="3103"/></clipPath><clipPath id="clip1"><rect x="440" y="375" width="4927" height="3094"/></clipPath><clipPath id="clip2"><rect x="549" y="579" width="4771" height="2495"/></clipPath><clipPath id="clip3"><rect x="549" y="579" width="4771" height="2495"/></clipPath><clipPath id="clip4"><rect x="440" y="375" width="4927" height="3094"/></clipPath><clipPath id="clip5"><rect x="440" y="375" width="4927" height="3094"/></clipPath><clipPath id="clip6"><rect x="440" y="375" width="4927" height="3094"/></clipPath><clipPath id="clip7"><rect x="440" y="375" width="4927" height="3094"/></clipPath><clipPath id="clip8"><rect x="440" y="375" width="4927" height="3094"/></clipPath><clipPath id="clip9"><rect x="440" y="375" width="4927" height="3094"/></clipPath><clipPath id="clip10"><rect x="440" y="375" width="4927" height="3094"/></clipPath><clipPath id="clip11"><rect x="440" y="375" width="4927" height="3094"/></clipPath><clipPath id="clip12"><rect x="440" y="375" width="4927" height="3094"/></clipPath><clipPath id="clip13"><rect x="440" y="375" width="4927" height="3094"/></clipPath><clipPath id="clip14"><rect x="440" y="375" width="4927" height="3094"/></clipPath><clipPath id="clip15"><rect x="440" y="375" width="4927" height="3094"/></clipPath><clipPath id="clip16"><rect x="440" y="375" width="4927" height="3094"/></clipPath><clipPath id="clip17"><rect x="440" y="375" width="4927" height="3094"/></clipPath><clipPath id="clip18"><rect x="440" y="375" width="4927" height="3094"/></clipPath><clipPath id="clip19"><rect x="440" y="375" width="4927" height="3094"/></clipPath><clipPath id="clip20"><rect x="440" y="375" width="4927" height="3094"/></clipPath><clipPath id="clip21"><rect x="440" y="375" width="4927" height="3094"/></clipPath><clipPath id="clip22"><rect x="440" y="375" width="4927" height="3094"/></clipPath></defs><g clip-path="url(#clip0)" transform="translate(-435 -371)"><rect x="440" y="376" width="4927" height="3094" fill="#FFFFFF" fill-opacity="1"/><g clip-path="url(#clip1)"><path d="M549.5 2572.58 5316.5 2572.58M549.5 2074.57 5316.5 2074.57M549.5 1575.55 5316.5 1575.55M549.5 1077.54 5316.5 1077.54M549.5 579.5 5316.5 579.5" stroke="#D9D9D9" stroke-width="3.4375" stroke-linecap="butt" stroke-linejoin="round" stroke-miterlimit="10" stroke-opacity="1" fill="none" fill-rule="nonzero"/></g><g clip-path="url(#clip2)"><path d="M799.026 3028.1 1026.03 3028.1 1026.03 3071 799.026 3071ZM1752.06 3028.1 1980.06 3028.1 1980.06 3071 1752.06 3071ZM2706.09 2873.09 2933.1 2873.09 2933.1 3071 2706.09 3071ZM3659.12 2628.09 3886.13 2628.09 3886.13 3071 3659.12 3071ZM4612.15 2881.09 4840.16 2881.09 4840.16 3071 4612.15 3071Z" fill="#4472C4" fill-rule="nonzero" fill-opacity="1"/></g><g clip-path="url(#clip3)"><path d="M1026.03 779.026 1254.04 779.026 1254.04 3071 1026.03 3071ZM1980.06 2991.1 2207.07 2991.1 2207.07 3071 1980.06 3071ZM2933.1 2981.1 3161.1 2981.1 3161.1 3071 2933.1 3071ZM3886.13 2921.1 4114.13 2921.1 4114.13 3071 3886.13 3071ZM4840.16 3041.1 5067.17 3041.1 5067.17 3071 4840.16 3071Z" fill="#ED7D31" fill-rule="nonzero" fill-opacity="1"/></g><g clip-path="url(#clip4)"><path d="M549.5 3070.5 5316.5 3070.5" stroke="#D9D9D9" stroke-width="3.4375" stroke-linecap="butt" stroke-linejoin="round" stroke-miterlimit="10" stroke-opacity="1" fill="none" fill-rule="evenodd"/></g><g clip-path="url(#clip5)"><text fill="#595959" fill-opacity="1" font-family="Calibri,Calibri_MSFontService,sans-serif" font-style="normal" font-variant="normal" font-weight="400" font-stretch="normal" font-size="41" text-anchor="start" direction="ltr" writing-mode="lr-tb" unicode-bidi="normal" text-decoration="none" transform="matrix(1 0 0 1 490.692 3081)">0</text></g><g clip-path="url(#clip6)"><text fill="#595959" fill-opacity="1" font-family="Calibri,Calibri_MSFontService,sans-serif" font-style="normal" font-variant="normal" font-weight="400" font-stretch="normal" font-size="41" text-anchor="start" direction="ltr" writing-mode="lr-tb" unicode-bidi="normal" text-decoration="none" transform="matrix(1 0 0 1 490.692 2583)">5</text></g><g clip-path="url(#clip7)"><text fill="#595959" fill-opacity="1" font-family="Calibri,Calibri_MSFontService,sans-serif" font-style="normal" font-variant="normal" font-weight="400" font-stretch="normal" font-size="41" text-anchor="start" direction="ltr" writing-mode="lr-tb" unicode-bidi="normal" text-decoration="none" transform="matrix(1 0 0 1 469.792 2085)">10</text></g><g clip-path="url(#clip8)"><text fill="#595959" fill-opacity="1" font-family="Calibri,Calibri_MSFontService,sans-serif" font-style="normal" font-variant="normal" font-weight="400" font-stretch="normal" font-size="41" text-anchor="start" direction="ltr" writing-mode="lr-tb" unicode-bidi="normal" text-decoration="none" transform="matrix(1 0 0 1 469.792 1586)">15</text></g><g clip-path="url(#clip9)"><text fill="#595959" fill-opacity="1" font-family="Calibri,Calibri_MSFontService,sans-serif" font-style="normal" font-variant="normal" font-weight="400" font-stretch="normal" font-size="41" text-anchor="start" direction="ltr" writing-mode="lr-tb" unicode-bidi="normal" text-decoration="none" transform="matrix(1 0 0 1 469.792 1088)">20</text></g><g clip-path="url(#clip10)"><text fill="#595959" fill-opacity="1" font-family="Calibri,Calibri_MSFontService,sans-serif" font-style="normal" font-variant="normal" font-weight="400" font-stretch="normal" font-size="41" text-anchor="start" direction="ltr" writing-mode="lr-tb" unicode-bidi="normal" text-decoration="none" transform="matrix(1 0 0 1 469.792 590)">25</text></g><g clip-path="url(#clip11)"><text fill="#595959" fill-opacity="1" font-family="Calibri,Calibri_MSFontService,sans-serif" font-style="normal" font-variant="normal" font-weight="400" font-stretch="normal" font-size="73" text-anchor="start" direction="ltr" writing-mode="lr-tb" unicode-bidi="normal" text-decoration="none" transform="matrix(1 0 0 1 611.764 3187)">single epoll(both server and</text></g><g clip-path="url(#clip12)"><text fill="#595959" fill-opacity="1" font-family="Calibri,Calibri_MSFontService,sans-serif" font-style="normal" font-variant="normal" font-weight="400" font-stretch="normal" font-size="73" text-anchor="start" direction="ltr" writing-mode="lr-tb" unicode-bidi="normal" text-decoration="none" transform="matrix(1 0 0 1 933.297 3277)">client)</text></g><g clip-path="url(#clip13)"><text fill="#595959" fill-opacity="1" font-family="Calibri,Calibri_MSFontService,sans-serif" font-style="normal" font-variant="normal" font-weight="400" font-stretch="normal" font-size="73" text-anchor="start" direction="ltr" writing-mode="lr-tb" unicode-bidi="normal" text-decoration="none" transform="matrix(1 0 0 1 1710.77 3187)">single epoll server</text></g><g clip-path="url(#clip14)"><text fill="#595959" fill-opacity="1" font-family="Calibri,Calibri_MSFontService,sans-serif" font-style="normal" font-variant="normal" font-weight="400" font-stretch="normal" font-size="73" text-anchor="start" direction="ltr" writing-mode="lr-tb" unicode-bidi="normal" text-decoration="none" transform="matrix(1 0 0 1 2626.49 3187)">multiple epoll server</text></g><g clip-path="url(#clip15)"><text fill="#595959" fill-opacity="1" font-family="Calibri,Calibri_MSFontService,sans-serif" font-style="normal" font-variant="normal" font-weight="400" font-stretch="normal" font-size="73" text-anchor="start" direction="ltr" writing-mode="lr-tb" unicode-bidi="normal" text-decoration="none" transform="matrix(1 0 0 1 3776.33 3187)">prefork</text></g><g clip-path="url(#clip16)"><text fill="#595959" fill-opacity="1" font-family="Calibri,Calibri_MSFontService,sans-serif" font-style="normal" font-variant="normal" font-weight="400" font-stretch="normal" font-size="73" text-anchor="start" direction="ltr" writing-mode="lr-tb" unicode-bidi="normal" text-decoration="none" transform="matrix(1 0 0 1 4667.58 3187)">workerpool</text></g><g clip-path="url(#clip17)"><text fill="#595959" fill-opacity="1" font-family="Calibri,Calibri_MSFontService,sans-serif" font-style="normal" font-variant="normal" font-weight="400" font-stretch="normal" font-size="92" text-anchor="start" direction="ltr" writing-mode="lr-tb" unicode-bidi="normal" text-decoration="none" transform="matrix(1 0 0 1 2801.72 497)">C</text></g><g clip-path="url(#clip18)"><text fill="#595959" fill-opacity="1" font-family="Calibri,Calibri_MSFontService,sans-serif" font-style="normal" font-variant="normal" font-weight="400" font-stretch="normal" font-size="92" text-anchor="start" direction="ltr" writing-mode="lr-tb" unicode-bidi="normal" text-decoration="none" transform="matrix(1 0 0 1 2850.6 497)">hart</text></g><g clip-path="url(#clip19)"><rect x="2524" y="3364" width="39.9998" height="40.0002" fill="#4472C4" fill-opacity="1"/></g><g clip-path="url(#clip20)"><text fill="#595959" fill-opacity="1" font-family="Calibri,Calibri_MSFontService,sans-serif" font-style="normal" font-variant="normal" font-weight="400" font-stretch="normal" font-size="73" text-anchor="start" direction="ltr" writing-mode="lr-tb" unicode-bidi="normal" text-decoration="none" transform="matrix(1 0 0 1 2582.6 3403)">throughout</text></g><g clip-path="url(#clip21)"><rect x="2996" y="3364" width="39.9998" height="40.0002" fill="#ED7D31" fill-opacity="1"/></g><g clip-path="url(#clip22)"><text fill="#595959" fill-opacity="1" font-family="Calibri,Calibri_MSFontService,sans-serif" font-style="normal" font-variant="normal" font-weight="400" font-stretch="normal" font-size="73" text-anchor="start" direction="ltr" writing-mode="lr-tb" unicode-bidi="normal" text-decoration="none" transform="matrix(1 0 0 1 3054.22 3403)">lantency</text></g><rect x="440.5" y="376.5" width="4927" height="3094" stroke="#D9D9D9" stroke-width="3.4375" stroke-linecap="butt" stroke-linejoin="round" stroke-miterlimit="10" stroke-opacity="1" fill="none"/></g></svg>