<svg width="4675" height="2870" xmlns="http://www.w3.org/2000/svg" xmlns:xlink="http://www.w3.org/1999/xlink" overflow="hidden"><defs><clipPath id="clip0"><rect x="595" y="375" width="4675" height="2870"/></clipPath><clipPath id="clip1"><rect x="600" y="380" width="4666" height="2860"/></clipPath><clipPath id="clip2"><rect x="710" y="583" width="4509" height="2261"/></clipPath><clipPath id="clip3"><rect x="710" y="583" width="4509" height="2261"/></clipPath><clipPath id="clip4"><rect x="600" y="380" width="4666" height="2860"/></clipPath><clipPath id="clip5"><rect x="600" y="380" width="4666" height="2860"/></clipPath><clipPath id="clip6"><rect x="600" y="380" width="4666" height="2860"/></clipPath><clipPath id="clip7"><rect x="600" y="380" width="4666" height="2860"/></clipPath><clipPath id="clip8"><rect x="600" y="380" width="4666" height="2860"/></clipPath><clipPath id="clip9"><rect x="600" y="380" width="4666" height="2860"/></clipPath><clipPath id="clip10"><rect x="600" y="380" width="4666" height="2860"/></clipPath><clipPath id="clip11"><rect x="600" y="380" width="4666" height="2860"/></clipPath><clipPath id="clip12"><rect x="600" y="380" width="4666" height="2860"/></clipPath><clipPath id="clip13"><rect x="600" y="380" width="4666" height="2860"/></clipPath><clipPath id="clip14"><rect x="600" y="380" width="4666" height="2860"/></clipPath><clipPath id="clip15"><rect x="600" y="380" width="4666" height="2860"/></clipPath><clipPath id="clip16"><rect x="600" y="380" width="4666" height="2860"/></clipPath><clipPath id="clip17"><rect x="600" y="380" width="4666" height="2860"/></clipPath><clipPath id="clip18"><rect x="600" y="380" width="4666" height="2860"/></clipPath><clipPath id="clip19"><rect x="600" y="380" width="4666" height="2860"/></clipPath><clipPath id="clip20"><rect x="600" y="380" width="4666" height="2860"/></clipPath><clipPath id="clip21"><rect x="600" y="380" width="4666" height="2860"/></clipPath><clipPath id="clip22"><rect x="600" y="380" width="4666" height="2860"/></clipPath><clipPath id="clip23"><rect x="600" y="380" width="4666" height="2860"/></clipPath><clipPath id="clip24"><rect x="600" y="380" width="4666" height="2860"/></clipPath><clipPath id="clip25"><rect x="600" y="380" width="4666" height="2860"/></clipPath><clipPath id="clip26"><rect x="600" y="380" width="4666" height="2860"/></clipPath><clipPath id="clip27"><rect x="600" y="380" width="4666" height="2860"/></clipPath><clipPath id="clip28"><rect x="600" y="380" width="4666" height="2860"/></clipPath><clipPath id="clip29"><rect x="600" y="380" width="4666" height="2860"/></clipPath><clipPath id="clip30"><rect x="600" y="380" width="4666" height="2860"/></clipPath><clipPath id="clip31"><rect x="600" y="380" width="4666" height="2860"/></clipPath><clipPath id="clip32"><rect x="600" y="380" width="4666" height="2860"/></clipPath></defs><g clip-path="url(#clip0)" transform="translate(-595 -375)"><rect x="600" y="380" width="4666" height="2860" fill="#FFFFFF" fill-opacity="1"/><g clip-path="url(#clip1)"><path d="M710.5 2389.58 5215.5 2389.58M710.5 1938.56 5215.5 1938.56M710.5 1486.55 5215.5 1486.55M710.5 1035.53 5215.5 1035.53M710.5 583.5 5215.5 583.5" stroke="#D9D9D9" stroke-width="3.4375" stroke-linecap="butt" stroke-linejoin="round" stroke-miterlimit="10" stroke-opacity="1" fill="none" fill-rule="nonzero"/></g><g clip-path="url(#clip2)"><path d="M946.031 2803.09 1161.04 2803.09 1161.04 2841 946.031 2841ZM1847.06 2803.09 2062.07 2803.09 2062.07 2841 1847.06 2841ZM2748.09 2663.09 2963.1 2663.09 2963.1 2841 2748.09 2841ZM3649.12 2440.08 3864.13 2440.08 3864.13 2841 3649.12 2841ZM4550.15 2670.09 4765.16 2670.09 4765.16 2841 4550.15 2841Z" fill="#4472C4" fill-rule="nonzero" fill-opacity="1"/></g><g clip-path="url(#clip3)"><path d="M1161.04 765.025 1376.05 765.025 1376.05 2841 1161.04 2841ZM2062.07 2769.09 2277.07 2769.09 2277.07 2841 2062.07 2841ZM2963.1 2760.09 3178.1 2760.09 3178.1 2841 2963.1 2841ZM3864.13 2706.09 4079.13 2706.09 4079.13 2841 3864.13 2841ZM4765.16 2814.09 4980.16 2814.09 4980.16 2841 4765.16 2841Z" fill="#ED7D31" fill-rule="nonzero" fill-opacity="1"/></g><g clip-path="url(#clip4)"><path d="M710.5 2841.5 5215.5 2841.5" stroke="#D9D9D9" stroke-width="3.4375" stroke-linecap="butt" stroke-linejoin="round" stroke-miterlimit="10" stroke-opacity="1" fill="none" fill-rule="evenodd"/></g><g clip-path="url(#clip5)"><text fill="#404040" fill-opacity="1" font-family="Calibri,Calibri_MSFontService,sans-serif" font-style="normal" font-variant="normal" font-weight="400" font-stretch="normal" font-size="64" text-anchor="start" direction="ltr" writing-mode="lr-tb" unicode-bidi="normal" text-decoration="none" transform="matrix(1 0 0 1 947.642 2803)">0.42495</text></g><g clip-path="url(#clip6)"><text fill="#404040" fill-opacity="1" font-family="Calibri,Calibri_MSFontService,sans-serif" font-style="normal" font-variant="normal" font-weight="400" font-stretch="normal" font-size="64" text-anchor="start" direction="ltr" writing-mode="lr-tb" unicode-bidi="normal" text-decoration="none" transform="matrix(1 0 0 1 1848.75 2803)">0.42402</text></g><g clip-path="url(#clip7)"><text fill="#404040" fill-opacity="1" font-family="Calibri,Calibri_MSFontService,sans-serif" font-style="normal" font-variant="normal" font-weight="400" font-stretch="normal" font-size="64" text-anchor="start" direction="ltr" writing-mode="lr-tb" unicode-bidi="normal" text-decoration="none" transform="matrix(1 0 0 1 2749.87 2774)">1.97814</text></g><g clip-path="url(#clip8)"><text fill="#404040" fill-opacity="1" font-family="Calibri,Calibri_MSFontService,sans-serif" font-style="normal" font-variant="normal" font-weight="400" font-stretch="normal" font-size="64" text-anchor="start" direction="ltr" writing-mode="lr-tb" unicode-bidi="normal" text-decoration="none" transform="matrix(1 0 0 1 3650.98 2663)">4.44415</text></g><g clip-path="url(#clip9)"><text fill="#404040" fill-opacity="1" font-family="Calibri,Calibri_MSFontService,sans-serif" font-style="normal" font-variant="normal" font-weight="400" font-stretch="normal" font-size="64" text-anchor="start" direction="ltr" writing-mode="lr-tb" unicode-bidi="normal" text-decoration="none" transform="matrix(1 0 0 1 4552.09 2777)">1.90022</text></g><g clip-path="url(#clip10)"><text fill="#404040" fill-opacity="1" font-family="Calibri,Calibri_MSFontService,sans-serif" font-style="normal" font-variant="normal" font-weight="400" font-stretch="normal" font-size="64" text-anchor="start" direction="ltr" writing-mode="lr-tb" unicode-bidi="normal" text-decoration="none" transform="matrix(1 0 0 1 1235.84 1825)">23</text></g><g clip-path="url(#clip11)"><text fill="#404040" fill-opacity="1" font-family="Calibri,Calibri_MSFontService,sans-serif" font-style="normal" font-variant="normal" font-weight="400" font-stretch="normal" font-size="64" text-anchor="start" direction="ltr" writing-mode="lr-tb" unicode-bidi="normal" text-decoration="none" transform="matrix(1 0 0 1 2128.85 2803)">0.8</text></g><g clip-path="url(#clip12)"><text fill="#404040" fill-opacity="1" font-family="Calibri,Calibri_MSFontService,sans-serif" font-style="normal" font-variant="normal" font-weight="400" font-stretch="normal" font-size="64" text-anchor="start" direction="ltr" writing-mode="lr-tb" unicode-bidi="normal" text-decoration="none" transform="matrix(1 0 0 1 3029.97 2803)">0.9</text></g><g clip-path="url(#clip13)"><text fill="#404040" fill-opacity="1" font-family="Calibri,Calibri_MSFontService,sans-serif" font-style="normal" font-variant="normal" font-weight="400" font-stretch="normal" font-size="64" text-anchor="start" direction="ltr" writing-mode="lr-tb" unicode-bidi="normal" text-decoration="none" transform="matrix(1 0 0 1 3931.08 2796)">1.5</text></g><g clip-path="url(#clip14)"><text fill="#404040" fill-opacity="1" font-family="Calibri,Calibri_MSFontService,sans-serif" font-style="normal" font-variant="normal" font-weight="400" font-stretch="normal" font-size="64" text-anchor="start" direction="ltr" writing-mode="lr-tb" unicode-bidi="normal" text-decoration="none" transform="matrix(1 0 0 1 4832.19 2803)">0.3</text></g><g clip-path="url(#clip15)"><text fill="#595959" fill-opacity="1" font-family="Calibri,Calibri_MSFontService,sans-serif" font-style="normal" font-variant="normal" font-weight="400" font-stretch="normal" font-size="41" text-anchor="start" direction="ltr" writing-mode="lr-tb" unicode-bidi="normal" text-decoration="none" transform="matrix(1 0 0 1 651.108 2851)">0</text></g><g clip-path="url(#clip16)"><text fill="#595959" fill-opacity="1" font-family="Calibri,Calibri_MSFontService,sans-serif" font-style="normal" font-variant="normal" font-weight="400" font-stretch="normal" font-size="41" text-anchor="start" direction="ltr" writing-mode="lr-tb" unicode-bidi="normal" text-decoration="none" transform="matrix(1 0 0 1 651.108 2400)">5</text></g><g clip-path="url(#clip17)"><text fill="#595959" fill-opacity="1" font-family="Calibri,Calibri_MSFontService,sans-serif" font-style="normal" font-variant="normal" font-weight="400" font-stretch="normal" font-size="41" text-anchor="start" direction="ltr" writing-mode="lr-tb" unicode-bidi="normal" text-decoration="none" transform="matrix(1 0 0 1 630.208 1949)">10</text></g><g clip-path="url(#clip18)"><text fill="#595959" fill-opacity="1" font-family="Calibri,Calibri_MSFontService,sans-serif" font-style="normal" font-variant="normal" font-weight="400" font-stretch="normal" font-size="41" text-anchor="start" direction="ltr" writing-mode="lr-tb" unicode-bidi="normal" text-decoration="none" transform="matrix(1 0 0 1 630.208 1497)">15</text></g><g clip-path="url(#clip19)"><text fill="#595959" fill-opacity="1" font-family="Calibri,Calibri_MSFontService,sans-serif" font-style="normal" font-variant="normal" font-weight="400" font-stretch="normal" font-size="41" text-anchor="start" direction="ltr" writing-mode="lr-tb" unicode-bidi="normal" text-decoration="none" transform="matrix(1 0 0 1 630.208 1046)">20</text></g><g clip-path="url(#clip20)"><text fill="#595959" fill-opacity="1" font-family="Calibri,Calibri_MSFontService,sans-serif" font-style="normal" font-variant="normal" font-weight="400" font-stretch="normal" font-size="41" text-anchor="start" direction="ltr" writing-mode="lr-tb" unicode-bidi="normal" text-decoration="none" transform="matrix(1 0 0 1 630.208 594)">25</text></g><g clip-path="url(#clip21)"><text fill="#595959" fill-opacity="1" font-family="Calibri,Calibri_MSFontService,sans-serif" font-style="normal" font-variant="normal" font-weight="400" font-stretch="normal" font-size="73" text-anchor="start" direction="ltr" writing-mode="lr-tb" unicode-bidi="normal" text-decoration="none" transform="matrix(1 0 0 1 746.073 2958)">single epoll(both server and</text></g><g clip-path="url(#clip22)"><text fill="#595959" fill-opacity="1" font-family="Calibri,Calibri_MSFontService,sans-serif" font-style="normal" font-variant="normal" font-weight="400" font-stretch="normal" font-size="73" text-anchor="start" direction="ltr" writing-mode="lr-tb" unicode-bidi="normal" text-decoration="none" transform="matrix(1 0 0 1 1067.61 3047)">client)</text></g><g clip-path="url(#clip23)"><text fill="#595959" fill-opacity="1" font-family="Calibri,Calibri_MSFontService,sans-serif" font-style="normal" font-variant="normal" font-weight="400" font-stretch="normal" font-size="73" text-anchor="start" direction="ltr" writing-mode="lr-tb" unicode-bidi="normal" text-decoration="none" transform="matrix(1 0 0 1 1792.82 2958)">single epoll server</text></g><g clip-path="url(#clip24)"><text fill="#595959" fill-opacity="1" font-family="Calibri,Calibri_MSFontService,sans-serif" font-style="normal" font-variant="normal" font-weight="400" font-stretch="normal" font-size="73" text-anchor="start" direction="ltr" writing-mode="lr-tb" unicode-bidi="normal" text-decoration="none" transform="matrix(1 0 0 1 2656.29 2958)">multiple epoll server</text></g><g clip-path="url(#clip25)"><text fill="#595959" fill-opacity="1" font-family="Calibri,Calibri_MSFontService,sans-serif" font-style="normal" font-variant="normal" font-weight="400" font-stretch="normal" font-size="73" text-anchor="start" direction="ltr" writing-mode="lr-tb" unicode-bidi="normal" text-decoration="none" transform="matrix(1 0 0 1 3753.88 2958)">prefork</text></g><g clip-path="url(#clip26)"><text fill="#595959" fill-opacity="1" font-family="Calibri,Calibri_MSFontService,sans-serif" font-style="normal" font-variant="normal" font-weight="400" font-stretch="normal" font-size="73" text-anchor="start" direction="ltr" writing-mode="lr-tb" unicode-bidi="normal" text-decoration="none" transform="matrix(1 0 0 1 4592.88 2958)">workerpool</text></g><g clip-path="url(#clip27)"><text fill="#595959" fill-opacity="1" font-family="Calibri,Calibri_MSFontService,sans-serif" font-style="normal" font-variant="normal" font-weight="400" font-stretch="normal" font-size="92" text-anchor="start" direction="ltr" writing-mode="lr-tb" unicode-bidi="normal" text-decoration="none" transform="matrix(1 0 0 1 2831.51 502)">C</text></g><g clip-path="url(#clip28)"><text fill="#595959" fill-opacity="1" font-family="Calibri,Calibri_MSFontService,sans-serif" font-style="normal" font-variant="normal" font-weight="400" font-stretch="normal" font-size="92" text-anchor="start" direction="ltr" writing-mode="lr-tb" unicode-bidi="normal" text-decoration="none" transform="matrix(1 0 0 1 2880.4 502)">hart</text></g><g clip-path="url(#clip29)"><rect x="2554" y="3135" width="39.9998" height="39.9998" fill="#4472C4" fill-opacity="1"/></g><g clip-path="url(#clip30)"><text fill="#595959" fill-opacity="1" font-family="Calibri,Calibri_MSFontService,sans-serif" font-style="normal" font-variant="normal" font-weight="400" font-stretch="normal" font-size="73" text-anchor="start" direction="ltr" writing-mode="lr-tb" unicode-bidi="normal" text-decoration="none" transform="matrix(1 0 0 1 2612.39 3176)">throughout</text></g><g clip-path="url(#clip31)"><rect x="3025" y="3135" width="41" height="39.9998" fill="#ED7D31" fill-opacity="1"/></g><g clip-path="url(#clip32)"><text fill="#595959" fill-opacity="1" font-family="Calibri,Calibri_MSFontService,sans-serif" font-style="normal" font-variant="normal" font-weight="400" font-stretch="normal" font-size="73" text-anchor="start" direction="ltr" writing-mode="lr-tb" unicode-bidi="normal" text-decoration="none" transform="matrix(1 0 0 1 3084.03 3176)">lantency</text></g><rect x="600.5" y="380.5" width="4666" height="2860" stroke="#D9D9D9" stroke-width="3.4375" stroke-linecap="butt" stroke-linejoin="round" stroke-miterlimit="10" stroke-opacity="1" fill="none"/></g></svg>